<?xml version="1.0" encoding="utf-8"?>
<!-- Generator: Adobe Illustrator 23.0.4, SVG Export Plug-In . SVG Version: 6.00 Build 0)  -->
<svg version="1.1" id="Layer_2" xmlns="http://www.w3.org/2000/svg" xmlns:xlink="http://www.w3.org/1999/xlink" x="0px" y="0px"
	 viewBox="0 0 512 512" style="enable-background:new 0 0 512 512;" xml:space="preserve">
<style type="text/css">
	.st0{fill:#0D202B;}
	.st1{fill:#FFD537;}
</style>
<g id="Layer_3">
	<rect class="st0" width="512" height="512"/>
	<path class="st1" d="M110.5,286.4c2.9,14.2,17.4,76.8,19,90s12.8,78.6,28.3,97.4c15.5,18.8,115,8.5,131.1,0.5s67.7-54,76-76.8
		c8.3-22.8,25.9-38.2,33.9-52.5c8-14.3,34.2-29.5,38.4-45.7c0,0,26.8-9.2,27.1-27.4c0.3-18.2-29-19.7-42.8-13.2
		c-13.8,6.5-76.7,59.9-84.1,59.5c-7.3-0.4-13.2,1.5-14.8-1.9c-1.6-3.5-2.1-49.5-7.9-68.2c0,0,21.4-108,16-154.7
		c-3.9-33.5-29.9-17.1-32.1-4.8c-0.7,3.8-27.6,148.8-31.2,149.2c-3.6,0.4-15.7-145-21.1-171c-5.5-26.1-35-19-36.5-0.6
		c-1.5,18.4-0.9,169.9-3.2,170.2c-2.4,0.3-20-120.2-25.9-149.8s-34.2-22.7-34.2-2.1c0,20.6,12.3,168.4,5.7,174
		s-40.8-89.9-48.7-105.9s-30.8-14.6-28.7,3.3C76.8,173.8,110.5,286.4,110.5,286.4z"/>
</g>
</svg>
